# xmcd
#
# Track frame offsets: 
#        150
#        13707
#        39967
#        69188
#
# Disc length: 1403 seconds
#
# Revision: 0
# Processed by: cddbd v1.5.2PL0 Copyright (c) Steve Scherf et al.
# Submitted via: ExactAudioCopy v0.95b4
#
DISCID=24057904
DTITLE=Off-Cast Project - get Ready for this
DYEAR=1900
DGENRE=
TTITLE0=radio mix
TTITLE1=extended mix
TTITLE2=offcast hands on mindsuckers devil fish club rmx
TTITLE3=turn the music 2 ya (kick ya ass club mix)
EXTD=
EXTT0=
EXTT1=
EXTT2=
EXTT3=
PLAYORDER=
